<?xml version="1.0" encoding="utf-8"?>
<!-- Generator: Adobe Illustrator 24.3.0, SVG Export Plug-In . SVG Version: 6.00 Build 0)  -->
<svg version="1.1" id="Layer_1" xmlns="http://www.w3.org/2000/svg" xmlns:xlink="http://www.w3.org/1999/xlink" x="0px" y="0px"
	 viewBox="0 0 250 83.41" style="enable-background:new 0 0 250 83.41;" xml:space="preserve">
<style type="text/css">
	.st0{fill:url(#SVGID_1_);}
	.st1{fill:url(#SVGID_2_);}
	.st2{fill:url(#SVGID_3_);}
	.st3{fill:url(#SVGID_4_);}
	.st4{fill:url(#SVGID_5_);}
	.st5{fill:url(#SVGID_6_);}
	.st6{fill:#02AFD7;}
	.st7{fill:#1AB0A3;}
	.st8{fill:#151943;}
	.st9{fill:url(#SVGID_7_);}
	.st10{fill:#FFFFFF;}
	.st11{fill:url(#SVGID_8_);}
	.st12{fill:url(#SVGID_9_);}
	.st13{fill:#232D61;}
	.st14{fill:#1A2853;}
	.st15{fill:#10AACE;}
</style>
<g>
	<linearGradient id="SVGID_1_" gradientUnits="userSpaceOnUse" x1="322.3861" y1="-104.5504" x2="707.685" y2="-105.0938">
		<stop  offset="0" style="stop-color:#13163F"/>
		<stop  offset="1" style="stop-color:#151943"/>
	</linearGradient>
	<path class="st0" d="M371.45-102.3c1.05,1.38,1.58,3.07,1.58,5.08c0,2.84-1.11,5.03-3.32,6.56c-2.21,1.53-5.43,2.3-9.67,2.3h-16.79
		v-32.46h15.86c3.96,0,6.99,0.76,9.11,2.27c2.12,1.51,3.18,3.57,3.18,6.17c0,1.58-0.38,2.98-1.14,4.22
		c-0.76,1.24-1.82,2.21-3.18,2.92C368.94-104.65,370.39-103.67,371.45-102.3z M350.72-115.17v7.65h7.47c1.86,0,3.26-0.32,4.22-0.97
		c0.96-0.65,1.44-1.61,1.44-2.87c0-1.27-0.48-2.22-1.44-2.85c-0.96-0.63-2.36-0.95-4.22-0.95H350.72z M363.96-94.99
		c1-0.65,1.51-1.65,1.51-3.01c0-2.69-1.99-4.03-5.98-4.03h-8.76v8.02h8.76C361.46-94.02,362.95-94.34,363.96-94.99z"/>
	<linearGradient id="SVGID_2_" gradientUnits="userSpaceOnUse" x1="322.3917" y1="-100.5639" x2="707.6906" y2="-101.1073">
		<stop  offset="0" style="stop-color:#13163F"/>
		<stop  offset="1" style="stop-color:#151943"/>
	</linearGradient>
	<path class="st1" d="M403.35-113.31v24.95h-6.86v-2.97c-0.96,1.08-2.1,1.91-3.43,2.48c-1.33,0.57-2.77,0.86-4.31,0.86
		c-3.28,0-5.87-0.94-7.79-2.83s-2.88-4.68-2.88-8.39v-14.1h7.23v13.03c0,4.02,1.68,6.03,5.05,6.03c1.73,0,3.12-0.56,4.17-1.69
		c1.05-1.13,1.58-2.81,1.58-5.03v-12.33H403.35z"/>
	<linearGradient id="SVGID_3_" gradientUnits="userSpaceOnUse" x1="322.3981" y1="-96.0285" x2="707.697" y2="-96.5719">
		<stop  offset="0" style="stop-color:#13163F"/>
		<stop  offset="1" style="stop-color:#151943"/>
	</linearGradient>
	<path class="st2" d="M434.84-113.31l-11.27,26.48c-1.14,2.88-2.56,4.9-4.24,6.08c-1.69,1.17-3.72,1.76-6.1,1.76
		c-1.3,0-2.58-0.2-3.85-0.6c-1.27-0.4-2.3-0.96-3.11-1.67l2.64-5.15c0.56,0.49,1.2,0.88,1.92,1.16c0.73,0.28,1.44,0.42,2.16,0.42
		c0.99,0,1.79-0.24,2.41-0.72c0.62-0.48,1.17-1.28,1.67-2.39l0.09-0.23l-10.81-25.13h7.47l7,16.93l7.05-16.93H434.84z"/>
	<linearGradient id="SVGID_4_" gradientUnits="userSpaceOnUse" x1="322.3916" y1="-100.6597" x2="707.6905" y2="-101.2032">
		<stop  offset="0" style="stop-color:#13163F"/>
		<stop  offset="1" style="stop-color:#151943"/>
	</linearGradient>
	<path class="st3" d="M457.89-93.93v5.56h-22.26v-4.36l12.71-15.03h-12.38v-5.56h21.52v4.36l-12.71,15.03H457.89z"/>
	<linearGradient id="SVGID_5_" gradientUnits="userSpaceOnUse" x1="322.3916" y1="-100.6326" x2="707.6866" y2="-101.1761">
		<stop  offset="0" style="stop-color:#13163F"/>
		<stop  offset="1" style="stop-color:#151943"/>
	</linearGradient>
	<path class="st4" d="M462.52-113.31h7.23v24.95h-7.23V-113.31z"/>
	<linearGradient id="SVGID_6_" gradientUnits="userSpaceOnUse" x1="322.3914" y1="-100.7751" x2="707.6903" y2="-101.3185">
		<stop  offset="0" style="stop-color:#13163F"/>
		<stop  offset="1" style="stop-color:#151943"/>
	</linearGradient>
	<path class="st5" d="M499.13-110.9c1.9,1.85,2.85,4.61,2.85,8.25v14.28h-7.23v-13.17c0-1.98-0.43-3.46-1.3-4.43
		c-0.86-0.97-2.12-1.46-3.76-1.46c-1.82,0-3.28,0.56-4.36,1.69c-1.08,1.13-1.62,2.81-1.62,5.03v12.34h-7.23v-24.95h6.91v2.92
		c0.96-1.05,2.15-1.86,3.57-2.43c1.42-0.57,2.98-0.86,4.68-0.86C494.74-113.68,497.23-112.75,499.13-110.9z"/>
</g>
<text transform="matrix(1 0 0 1 340.7471 -66.9043)" style="opacity:0.5;fill:#151943; font-family:'Montserrat-SemiBold'; font-size:14.4917px;">Shop Smart. Live Easy.</text>
<rect x="197.36" y="14.18" class="st6" width="7.61" height="7.61"/>
<g>
	<g>
		<path class="st7" d="M324.48-107.21c-0.21-2.04-1.93-3.6-3.98-3.6h-19.78v46.8h23.76c2.37,0,4.23-2.05,3.98-4.41L324.48-107.21z"
			/>
		<path class="st8" d="M280.93-110.81c-2.05,0-3.78,1.55-3.98,3.6l-3.98,38.79c-0.24,2.36,1.61,4.41,3.98,4.41h23.76v-46.8H280.93z"
			/>
		<linearGradient id="SVGID_7_" gradientUnits="userSpaceOnUse" x1="287.0219" y1="-117.6546" x2="314.4024" y2="-117.6546">
			<stop  offset="0" style="stop-color:#13163F"/>
			<stop  offset="1" style="stop-color:#1AB0A3"/>
		</linearGradient>
		<path class="st9" d="M300.71-124.5c-7.55,0-13.69,6.14-13.69,13.69h3.68c0-5.52,4.49-10.01,10.01-10.01
			c5.52,0,10.01,4.49,10.01,10.01h3.68C314.4-118.36,308.26-124.5,300.71-124.5z"/>
		<circle class="st10" cx="289.28" cy="-105.81" r="2.12"/>
		<circle class="st10" cx="312.28" cy="-105.81" r="2.12"/>
	</g>
	<path class="st10" d="M315.26-82.3c-0.95-1.39-2.27-2.39-3.95-2.98c1.23-0.72,2.19-1.71,2.88-2.96c0.69-1.25,1.03-2.68,1.03-4.27
		c0-2.63-0.96-4.71-2.88-6.24c-1.92-1.53-4.67-2.3-8.25-2.3h-3.37v5.73h2.53c0.2,0,0.37,0.02,0.56,0.03
		c0.54,0.03,1.04,0.08,1.48,0.18c0.71,0.16,1.31,0.4,1.78,0.75c0.87,0.64,1.3,1.6,1.3,2.89c0,1.28-0.43,2.25-1.3,2.91
		c-0.46,0.35-1.05,0.6-1.75,0.76c-0.46,0.11-0.97,0.17-1.53,0.19c-1.33-0.1-1.58-0.02-2.57-0.96l-0.51-0.53l-7.34-8.46l-8.65,9.97
		h4.99v19.39h11h4.21c3.84,0,6.76-0.77,8.76-2.32c2-1.55,3-3.76,3-6.64C316.69-79.2,316.22-80.91,315.26-82.3z M308.48-74.91
		c-0.91,0.66-2.26,0.99-4.05,0.99h-3.7h-4.24v-8.12h4.24h3.7c3.61,0,5.42,1.36,5.42,4.08C309.85-76.58,309.39-75.57,308.48-74.91z"
		/>
</g>
<g>
	<g>
		<path class="st7" d="M73.6,165.56c-0.3-2.88-2.72-5.08-5.62-5.08H40.06v66.04h33.53c3.35,0,5.96-2.9,5.62-6.23L73.6,165.56z"/>
		<path class="st8" d="M12.15,160.48c-2.9,0-5.33,2.19-5.62,5.08l-5.61,54.73c-0.34,3.33,2.27,6.23,5.62,6.23h33.53v-66.04H12.15z"
			/>
		<linearGradient id="SVGID_8_" gradientUnits="userSpaceOnUse" x1="20.7454" y1="150.8243" x2="59.3796" y2="150.8243">
			<stop  offset="0" style="stop-color:#13163F"/>
			<stop  offset="1" style="stop-color:#1AB0A3"/>
		</linearGradient>
		<path class="st11" d="M40.06,141.17c-10.65,0-19.32,8.67-19.32,19.32h5.19c0-7.79,6.34-14.12,14.12-14.12s14.12,6.34,14.12,14.12
			h5.19C59.38,149.83,50.71,141.17,40.06,141.17z"/>
		<circle class="st10" cx="23.93" cy="167.54" r="2.99"/>
		<circle class="st10" cx="56.39" cy="167.54" r="2.99"/>
	</g>
	<path class="st10" d="M60.6,200.7c-1.34-1.96-3.2-3.37-5.57-4.21c1.74-1.02,3.09-2.41,4.06-4.17c0.97-1.77,1.45-3.78,1.45-6.03
		c0-3.71-1.35-6.65-4.06-8.81c-2.71-2.16-6.59-3.25-11.65-3.25h-4.75v8.08h3.57c0.28,0,0.52,0.03,0.78,0.04
		c0.76,0.04,1.47,0.12,2.09,0.26c1,0.22,1.85,0.57,2.52,1.06c1.22,0.91,1.84,2.26,1.84,4.07c0,1.81-0.61,3.18-1.84,4.11
		c-0.65,0.5-1.48,0.85-2.46,1.08c-0.64,0.15-1.37,0.23-2.15,0.27c-1.87-0.14-2.23-0.02-3.62-1.35l-0.72-0.74l-10.36-11.93
		l-12.21,14.07h7.04v27.36h15.52h5.94c5.41,0,9.53-1.09,12.36-3.28c2.82-2.19,4.24-5.31,4.24-9.37
		C62.61,205.09,61.94,202.67,60.6,200.7z M51.02,211.14c-1.28,0.93-3.19,1.39-5.72,1.39h-5.23H34.1v-11.46h5.98h5.23
		c5.1,0,7.65,1.92,7.65,5.76C52.95,208.78,52.31,210.21,51.02,211.14z"/>
</g>
<g>
	<g>
		<path class="st7" d="M-126.67,198.73c-0.56-5.48-5.18-9.65-10.69-9.65h-53.1v125.6h63.78c6.37,0,11.34-5.51,10.69-11.85
			L-126.67,198.73z"/>
		<path class="st8" d="M-243.56,189.07c-5.51,0-10.13,4.17-10.69,9.65l-10.68,104.1c-0.65,6.34,4.32,11.85,10.69,11.85h63.78v-125.6
			H-243.56z"/>
		<linearGradient id="SVGID_9_" gradientUnits="userSpaceOnUse" x1="-227.2059" y1="170.7033" x2="-153.7228" y2="170.7033">
			<stop  offset="0" style="stop-color:#13163F"/>
			<stop  offset="1" style="stop-color:#1AB0A3"/>
		</linearGradient>
		<path class="st12" d="M-190.46,152.33c-20.26,0-36.74,16.48-36.74,36.74h9.88c0-14.81,12.05-26.87,26.87-26.87
			c14.81,0,26.87,12.05,26.87,26.87h9.88C-153.72,168.82-170.21,152.33-190.46,152.33z"/>
		<circle class="st10" cx="-221.16" cy="202.49" r="5.68"/>
		<circle class="st10" cx="-159.41" cy="202.49" r="5.68"/>
	</g>
	<path class="st10" d="M-151.41,265.58c-2.55-3.74-6.09-6.4-10.6-8c3.31-1.93,5.88-4.58,7.72-7.94c1.84-3.36,2.76-7.18,2.76-11.47
		c0-7.06-2.58-12.64-7.72-16.76c-5.15-4.11-12.53-6.17-22.15-6.17h-9.04v15.37h6.78c0.53,0,0.99,0.05,1.49,0.08
		c1.45,0.07,2.79,0.22,3.98,0.49c1.91,0.43,3.52,1.09,4.79,2.02c2.33,1.72,3.49,4.3,3.49,7.75c0,3.45-1.16,6.05-3.49,7.81
		c-1.24,0.94-2.82,1.61-4.69,2.05c-1.22,0.29-2.6,0.45-4.09,0.52c-3.56-0.26-4.23-0.04-6.89-2.56l-1.37-1.42l-19.7-22.7
		l-23.22,26.76h13.4v52.04h29.52h11.29c10.3,0,18.13-2.08,23.5-6.24c5.37-4.16,8.06-10.1,8.06-17.83
		C-147.58,273.91-148.86,269.32-151.41,265.58z M-169.62,285.42c-2.44,1.76-6.07,2.65-10.88,2.65h-9.94h-11.37v-21.8h11.37h9.94
		c9.7,0,14.54,3.65,14.54,10.96C-165.95,280.93-167.17,283.66-169.62,285.42z"/>
</g>
<rect x="-259.03" y="-73.92" class="st13" width="100.12" height="53.75"/>
<rect x="-136.25" y="-73.92" class="st6" width="100.12" height="53.75"/>
<path class="st13" d="M97,41.79c0-2.1-0.55-3.87-1.65-5.3c-1.1-1.44-2.61-2.46-4.55-3.08c1.42-0.74,2.53-1.76,3.32-3.05
	c0.79-1.29,1.19-2.76,1.19-4.41c0-2.71-1.11-4.86-3.32-6.44c-2.21-1.58-5.38-2.37-9.52-2.37H65.91v33.9h17.53
	c4.42,0,7.79-0.8,10.1-2.4C95.84,47.04,97,44.76,97,41.79z M73.7,23.05h7.8c1.94,0,3.41,0.33,4.41,0.99c1,0.66,1.5,1.65,1.5,2.98
	c0,1.32-0.5,2.32-1.5,3c-1,0.68-2.47,1.02-4.41,1.02h-7.8V23.05z M87.53,44.11c-1.05,0.68-2.61,1.02-4.67,1.02H73.7v-8.38h9.15
	c4.17,0,6.25,1.4,6.25,4.21C89.1,42.38,88.58,43.43,87.53,44.11z"/>
<path class="st13" d="M129.32,47.6c2.69-2.68,4.04-6.5,4.04-11.48V17.14h-7.75v18.69c0,3.13-0.65,5.43-1.94,6.9
	c-1.29,1.47-3.16,2.2-5.62,2.2c-5.04,0-7.55-3.03-7.55-9.1V17.14h-7.85v18.98c0,4.97,1.35,8.8,4.04,11.48
	c2.7,2.68,6.47,4.02,11.31,4.02C122.86,51.62,126.63,50.28,129.32,47.6z"/>
<polygon class="st13" points="162.37,17.14 153.32,32.2 144.26,17.14 135.93,17.14 149.06,38.93 149.06,51.04 156.9,51.04 
	156.9,39.03 170.07,17.14 "/>
<polygon class="st6" points="192.11,24.98 169.64,24.98 169.64,30.79 182.57,30.79 169.3,46.48 169.3,51.04 192.54,51.04 
	192.54,45.23 178.84,45.23 192.11,29.53 "/>
<rect x="197.38" y="24.98" class="st6" width="7.55" height="26.05"/>
<path class="st6" d="M235.62,27.5c-1.99-1.94-4.59-2.91-7.82-2.91c-1.78,0-3.41,0.3-4.89,0.9c-1.49,0.6-2.73,1.45-3.73,2.54v-3.05
	h-7.22v26.05h7.55V38.15c0-2.32,0.56-4.08,1.7-5.25c1.13-1.18,2.65-1.77,4.55-1.77c1.71,0,3.02,0.51,3.92,1.53
	c0.9,1.02,1.36,2.56,1.36,4.62v13.75h7.55V36.12C238.6,32.31,237.6,29.44,235.62,27.5z"/>
<path class="st13" d="M71.58,63.41c-0.47-0.18-1.08-0.37-1.85-0.55c-0.59-0.14-1.06-0.26-1.41-0.39c-0.35-0.12-0.64-0.29-0.87-0.51
	s-0.35-0.5-0.35-0.85c0-0.48,0.21-0.87,0.62-1.17c0.41-0.3,1.03-0.45,1.86-0.45c0.47,0,0.94,0.07,1.43,0.21
	c0.49,0.14,0.94,0.35,1.37,0.62l0.48-1.17c-0.42-0.29-0.92-0.52-1.5-0.67c-0.58-0.16-1.18-0.23-1.78-0.23
	c-0.87,0-1.59,0.13-2.17,0.39c-0.58,0.26-1.02,0.61-1.31,1.05c-0.29,0.44-0.43,0.93-0.43,1.47c0,0.65,0.17,1.17,0.5,1.55
	c0.34,0.38,0.74,0.67,1.21,0.85c0.47,0.19,1.09,0.37,1.86,0.55c0.61,0.15,1.09,0.28,1.42,0.39c0.34,0.12,0.62,0.28,0.85,0.5
	s0.34,0.5,0.34,0.85c0,0.48-0.21,0.86-0.63,1.15s-1.05,0.43-1.9,0.43c-0.64,0-1.27-0.11-1.88-0.33c-0.61-0.22-1.11-0.5-1.5-0.85
	l-0.54,1.14c0.41,0.38,0.97,0.69,1.69,0.93c0.71,0.24,1.46,0.36,2.23,0.36c0.87,0,1.6-0.13,2.19-0.39s1.04-0.61,1.33-1.05
	c0.29-0.44,0.44-0.93,0.44-1.47c0-0.64-0.17-1.15-0.5-1.53C72.45,63.88,72.05,63.6,71.58,63.41z"/>
<path class="st13" d="M75.92,57.53c-0.27,0-0.5,0.09-0.68,0.27c-0.18,0.18-0.27,0.4-0.27,0.65s0.09,0.47,0.27,0.64
	c0.18,0.18,0.41,0.26,0.68,0.26c0.27,0,0.5-0.09,0.68-0.27c0.18-0.18,0.27-0.4,0.27-0.66c0-0.25-0.09-0.46-0.27-0.63
	C76.41,57.62,76.19,57.53,75.92,57.53z"/>
<rect x="75.21" y="60.84" class="st13" width="1.4" height="7.73"/>
<path class="st13" d="M88.96,60.77c-0.65,0-1.24,0.13-1.76,0.38c-0.52,0.25-0.93,0.6-1.22,1.05c-0.25-0.47-0.61-0.82-1.08-1.07
	c-0.47-0.24-1-0.36-1.6-0.36c-0.58,0-1.1,0.1-1.56,0.31c-0.46,0.21-0.83,0.51-1.11,0.91v-1.15h-1.34v7.73h1.4v-3.98
	c0-0.83,0.21-1.46,0.63-1.9c0.42-0.44,0.98-0.66,1.69-0.66c0.64,0,1.14,0.19,1.48,0.57c0.35,0.38,0.52,0.94,0.52,1.69v4.29h1.4
	v-3.98c0-0.83,0.21-1.46,0.63-1.9s0.98-0.66,1.69-0.66c0.64,0,1.14,0.19,1.48,0.57s0.52,0.94,0.52,1.69v4.29h1.4v-4.45
	c0-1.11-0.28-1.95-0.85-2.51S89.94,60.77,88.96,60.77z"/>
<path class="st13" d="M100.83,61.27c-0.59-0.33-1.27-0.5-2.01-0.5c-0.57,0-1.1,0.11-1.58,0.33c-0.48,0.22-0.87,0.54-1.18,0.97v-1.23
	h-1.34v10.57h1.4v-4c0.32,0.41,0.71,0.72,1.17,0.93c0.46,0.21,0.97,0.32,1.53,0.32c0.75,0,1.42-0.17,2.01-0.5
	c0.59-0.33,1.06-0.8,1.39-1.39c0.34-0.6,0.5-1.29,0.5-2.07c0-0.78-0.17-1.46-0.5-2.06C101.89,62.06,101.42,61.6,100.83,61.27z
	 M100.97,66.13c-0.23,0.41-0.54,0.73-0.93,0.96c-0.39,0.23-0.84,0.34-1.34,0.34c-0.49,0-0.93-0.11-1.33-0.34
	c-0.4-0.23-0.71-0.55-0.93-0.96c-0.22-0.41-0.34-0.89-0.34-1.42c0-0.53,0.11-1.01,0.34-1.42c0.23-0.41,0.54-0.73,0.93-0.96
	C97.77,62.11,98.21,62,98.7,62c0.5,0,0.94,0.11,1.34,0.34c0.39,0.22,0.71,0.54,0.93,0.96c0.23,0.41,0.34,0.89,0.34,1.42
	C101.31,65.25,101.19,65.72,100.97,66.13z"/>
<rect x="104.67" y="57.75" class="st13" width="1.4" height="10.83"/>
<path class="st13" d="M109.44,57.53c-0.27,0-0.5,0.09-0.68,0.27c-0.18,0.18-0.27,0.4-0.27,0.65s0.09,0.47,0.27,0.64
	c0.18,0.18,0.41,0.26,0.68,0.26c0.27,0,0.5-0.09,0.68-0.27c0.18-0.18,0.27-0.4,0.27-0.66c0-0.25-0.09-0.46-0.27-0.63
	C109.94,57.62,109.71,57.53,109.44,57.53z"/>
<rect x="108.74" y="60.84" class="st13" width="1.4" height="7.73"/>
<path class="st13" d="M116.63,60.84h-2.25v-0.67c0-0.9,0.42-1.36,1.25-1.36c0.4,0,0.76,0.12,1.08,0.36l0.42-1.07
	c-0.19-0.15-0.43-0.26-0.7-0.34c-0.27-0.08-0.56-0.12-0.88-0.12c-0.81,0-1.44,0.22-1.88,0.67c-0.45,0.45-0.67,1.06-0.67,1.82v0.69
	h-1.31V62h1.31v6.58h1.4V62h2.22V60.84z"/>
<path class="st13" d="M120.91,67.03l-2.7-6.19h-1.46l3.42,7.72l-0.25,0.54c-0.19,0.44-0.39,0.75-0.62,0.93
	c-0.23,0.18-0.51,0.27-0.85,0.27c-0.53,0-0.99-0.19-1.39-0.57l-0.6,1.05c0.23,0.23,0.53,0.41,0.88,0.53
	c0.35,0.12,0.72,0.18,1.1,0.18c0.62,0,1.16-0.16,1.6-0.48c0.44-0.32,0.83-0.88,1.16-1.66l3.75-8.51h-1.37L120.91,67.03z"/>
<polygon class="st13" points="136.92,58.36 133.63,63.75 130.37,58.36 128.8,58.36 132.86,65.02 132.86,68.58 134.31,68.58 
	134.31,65.05 138.36,58.36 "/>
<path class="st13" d="M144.14,61.27c-0.61-0.34-1.3-0.5-2.06-0.5s-1.46,0.17-2.07,0.5c-0.61,0.34-1.09,0.8-1.44,1.4
	c-0.35,0.6-0.52,1.28-0.52,2.04c0,0.76,0.17,1.44,0.52,2.04c0.35,0.6,0.82,1.07,1.44,1.41c0.61,0.34,1.3,0.51,2.07,0.51
	s1.46-0.17,2.06-0.51c0.61-0.34,1.08-0.81,1.43-1.41c0.35-0.6,0.52-1.28,0.52-2.04c0-0.76-0.17-1.44-0.52-2.04
	C145.22,62.08,144.74,61.61,144.14,61.27z M144.33,66.13c-0.22,0.41-0.53,0.73-0.93,0.96c-0.39,0.23-0.84,0.34-1.34,0.34
	s-0.94-0.11-1.34-0.34c-0.39-0.23-0.71-0.55-0.93-0.96s-0.34-0.89-0.34-1.42c0-0.53,0.11-1.01,0.34-1.42s0.54-0.73,0.93-0.96
	c0.39-0.22,0.84-0.34,1.34-0.34s0.94,0.11,1.34,0.34c0.39,0.22,0.7,0.54,0.93,0.96c0.22,0.41,0.34,0.89,0.34,1.42
	C144.67,65.25,144.56,65.72,144.33,66.13z"/>
<path class="st13" d="M153.83,64.84c0,0.82-0.21,1.45-0.64,1.9c-0.43,0.45-1.01,0.67-1.75,0.67c-0.67,0-1.19-0.19-1.55-0.58
	c-0.36-0.38-0.54-0.95-0.54-1.7v-4.29h-1.4v4.45c0,1.11,0.3,1.95,0.89,2.52c0.59,0.57,1.41,0.85,2.44,0.85
	c0.54,0,1.05-0.11,1.51-0.33c0.46-0.22,0.83-0.53,1.12-0.93v1.17h1.33v-7.73h-1.4V64.84z"/>
<path class="st13" d="M159.25,62.14v-1.3h-1.34v7.73h1.4v-3.85c0-0.84,0.22-1.48,0.65-1.93c0.43-0.45,1.03-0.68,1.79-0.68
	c0.14,0,0.24,0,0.32,0.01v-1.36c-0.68,0-1.26,0.12-1.74,0.35C159.85,61.35,159.49,61.69,159.25,62.14z"/>
<path class="st13" d="M173.24,63.41c-0.47-0.18-1.08-0.37-1.85-0.55c-0.59-0.14-1.06-0.26-1.41-0.39c-0.35-0.12-0.64-0.29-0.87-0.51
	s-0.35-0.5-0.35-0.85c0-0.48,0.21-0.87,0.62-1.17c0.41-0.3,1.03-0.45,1.86-0.45c0.47,0,0.94,0.07,1.43,0.21
	c0.49,0.14,0.94,0.35,1.37,0.62l0.48-1.17c-0.42-0.29-0.92-0.52-1.5-0.67c-0.58-0.16-1.18-0.23-1.78-0.23
	c-0.87,0-1.59,0.13-2.17,0.39c-0.58,0.26-1.02,0.61-1.31,1.05c-0.29,0.44-0.43,0.93-0.43,1.47c0,0.65,0.17,1.17,0.5,1.55
	c0.34,0.38,0.74,0.67,1.21,0.85c0.47,0.19,1.09,0.37,1.86,0.55c0.61,0.15,1.09,0.28,1.42,0.39c0.33,0.12,0.62,0.28,0.85,0.5
	s0.34,0.5,0.34,0.85c0,0.48-0.21,0.86-0.63,1.15c-0.42,0.29-1.05,0.43-1.9,0.43c-0.64,0-1.27-0.11-1.88-0.33
	c-0.61-0.22-1.11-0.5-1.5-0.85l-0.54,1.14c0.41,0.38,0.97,0.69,1.69,0.93c0.71,0.24,1.46,0.36,2.23,0.36c0.87,0,1.6-0.13,2.19-0.39
	c0.59-0.26,1.04-0.61,1.33-1.05c0.29-0.44,0.44-0.93,0.44-1.47c0-0.64-0.17-1.15-0.5-1.53C174.11,63.88,173.71,63.6,173.24,63.41z"
	/>
<path class="st13" d="M181.01,60.77c-0.58,0-1.11,0.1-1.58,0.31c-0.47,0.2-0.85,0.49-1.15,0.86v-4.19h-1.4v10.83h1.4v-3.98
	c0-0.83,0.22-1.46,0.66-1.9c0.44-0.44,1.04-0.66,1.79-0.66c0.67,0,1.19,0.19,1.55,0.57c0.36,0.38,0.54,0.94,0.54,1.69v4.29h1.4
	v-4.45c0-1.1-0.29-1.93-0.87-2.5C182.77,61.06,181.99,60.77,181.01,60.77z"/>
<path class="st13" d="M192.24,61.27c-0.61-0.34-1.3-0.5-2.07-0.5s-1.46,0.17-2.07,0.5c-0.61,0.34-1.09,0.8-1.44,1.4
	c-0.35,0.6-0.52,1.28-0.52,2.04c0,0.76,0.17,1.44,0.52,2.04c0.35,0.6,0.83,1.07,1.44,1.41c0.61,0.34,1.3,0.51,2.07,0.51
	s1.46-0.17,2.07-0.51c0.61-0.34,1.08-0.81,1.43-1.41c0.34-0.6,0.52-1.28,0.52-2.04c0-0.76-0.17-1.44-0.52-2.04
	C193.32,62.08,192.85,61.61,192.24,61.27z M192.44,66.13c-0.22,0.41-0.53,0.73-0.93,0.96c-0.39,0.23-0.84,0.34-1.34,0.34
	c-0.5,0-0.94-0.11-1.33-0.34c-0.39-0.23-0.71-0.55-0.93-0.96c-0.23-0.41-0.34-0.89-0.34-1.42c0-0.53,0.11-1.01,0.34-1.42
	c0.23-0.41,0.54-0.73,0.93-0.96c0.39-0.22,0.84-0.34,1.33-0.34c0.5,0,0.94,0.11,1.34,0.34c0.39,0.22,0.7,0.54,0.93,0.96
	s0.34,0.89,0.34,1.42C192.77,65.25,192.66,65.72,192.44,66.13z"/>
<path class="st13" d="M202.24,61.27c-0.59-0.33-1.26-0.5-2.01-0.5c-0.57,0-1.1,0.11-1.58,0.33c-0.48,0.22-0.87,0.54-1.18,0.97v-1.23
	h-1.34v10.57h1.4v-4c0.32,0.41,0.71,0.72,1.17,0.93c0.46,0.21,0.97,0.32,1.52,0.32c0.75,0,1.42-0.17,2.01-0.5
	c0.59-0.33,1.06-0.8,1.39-1.39c0.34-0.6,0.5-1.29,0.5-2.07c0-0.78-0.17-1.46-0.5-2.06C203.3,62.06,202.83,61.6,202.24,61.27z
	 M202.38,66.13c-0.23,0.41-0.54,0.73-0.93,0.96c-0.39,0.23-0.84,0.34-1.33,0.34c-0.49,0-0.93-0.11-1.33-0.34
	c-0.4-0.23-0.71-0.55-0.93-0.96c-0.22-0.41-0.33-0.89-0.33-1.42c0-0.53,0.11-1.01,0.34-1.42s0.54-0.73,0.93-0.96
	c0.39-0.23,0.83-0.34,1.32-0.34c0.5,0,0.94,0.11,1.33,0.34c0.39,0.22,0.71,0.54,0.93,0.96s0.34,0.89,0.34,1.42
	C202.72,65.25,202.61,65.72,202.38,66.13z"/>
<path class="st13" d="M212.2,61.27c-0.59-0.33-1.26-0.5-2.01-0.5c-0.57,0-1.1,0.11-1.58,0.33c-0.48,0.22-0.87,0.54-1.18,0.97v-1.23
	h-1.34v10.57h1.4v-4c0.32,0.41,0.71,0.72,1.17,0.93c0.46,0.21,0.97,0.32,1.52,0.32c0.75,0,1.42-0.17,2.01-0.5
	c0.59-0.33,1.06-0.8,1.39-1.39c0.34-0.6,0.5-1.29,0.5-2.07c0-0.78-0.17-1.46-0.5-2.06C213.25,62.06,212.79,61.6,212.2,61.27z
	 M212.33,66.13c-0.23,0.41-0.54,0.73-0.93,0.96c-0.39,0.23-0.84,0.34-1.33,0.34c-0.49,0-0.93-0.11-1.33-0.34
	c-0.4-0.23-0.71-0.55-0.93-0.96c-0.22-0.41-0.33-0.89-0.33-1.42c0-0.53,0.11-1.01,0.34-1.42s0.54-0.73,0.93-0.96
	c0.39-0.23,0.83-0.34,1.32-0.34c0.5,0,0.94,0.11,1.33,0.34c0.39,0.22,0.71,0.54,0.93,0.96s0.34,0.89,0.34,1.42
	C212.68,65.25,212.56,65.72,212.33,66.13z"/>
<path class="st13" d="M216.73,57.53c-0.27,0-0.5,0.09-0.68,0.27c-0.18,0.18-0.27,0.4-0.27,0.65s0.09,0.47,0.27,0.64
	c0.18,0.18,0.41,0.26,0.68,0.26s0.5-0.09,0.68-0.27s0.27-0.4,0.27-0.66c0-0.25-0.09-0.46-0.27-0.63S217.01,57.53,216.73,57.53z"/>
<rect x="216.03" y="60.84" class="st13" width="1.4" height="7.73"/>
<path class="st13" d="M224.24,60.77c-0.61,0-1.16,0.11-1.64,0.32s-0.86,0.52-1.15,0.92v-1.17h-1.34v7.73h1.4v-3.98
	c0-0.83,0.22-1.46,0.66-1.9c0.44-0.44,1.04-0.66,1.79-0.66c0.67,0,1.19,0.19,1.55,0.57c0.36,0.38,0.54,0.94,0.54,1.69v4.29h1.4
	v-4.45c0-1.1-0.29-1.93-0.87-2.5C226,61.06,225.22,60.77,224.24,60.77z"/>
<path class="st13" d="M236.16,62.04c-0.32-0.42-0.73-0.73-1.23-0.95s-1.04-0.32-1.63-0.32c-0.74,0-1.41,0.16-2.01,0.47
	s-1.07,0.75-1.41,1.32c-0.34,0.57-0.51,1.22-0.51,1.95c0,0.73,0.17,1.38,0.51,1.95c0.34,0.57,0.81,1.01,1.41,1.33
	c0.6,0.32,1.27,0.47,2.01,0.47c0.56,0,1.09-0.1,1.57-0.3c0.48-0.2,0.89-0.5,1.22-0.9v0.61c0,0.88-0.22,1.53-0.65,1.96
	s-1.1,0.64-2.01,0.64c-0.56,0-1.11-0.09-1.64-0.27s-0.98-0.43-1.33-0.74l-0.67,1.08c0.41,0.37,0.94,0.65,1.61,0.85
	c0.66,0.2,1.36,0.3,2.09,0.3c1.33,0,2.33-0.32,3.01-0.97c0.67-0.65,1.01-1.65,1.01-3v-6.68h-1.33V62.04z M235.77,65.81
	c-0.23,0.38-0.54,0.68-0.95,0.9c-0.4,0.21-0.86,0.32-1.37,0.32c-0.52,0-0.98-0.11-1.38-0.32c-0.4-0.21-0.72-0.51-0.95-0.9
	c-0.23-0.38-0.34-0.82-0.34-1.31c0-0.75,0.25-1.35,0.74-1.82c0.5-0.46,1.14-0.69,1.93-0.69c0.78,0,1.42,0.23,1.91,0.69
	c0.5,0.46,0.74,1.07,0.74,1.82C236.12,64.99,236,65.43,235.77,65.81z"/>
<g>
	<text transform="matrix(1 0 0 1 134.6275 180.3028)"><tspan x="0" y="0" style="fill:#1D2D5B; font-family:'Montserrat-Bold'; font-size:48.4271px;">BUY</tspan><tspan x="107.94" y="0" style="fill:#0CAED5; font-family:'Montserrat-Bold'; font-size:48.4271px;">zin</tspan></text>
	<g>
		<text transform="matrix(1 0 0 1 137.564 197.8453)" class="st13" style="font-family:'Montserrat-Medium'; font-size:14.5945px;">Simplify Your Shopping</text>
	</g>
</g>
<g>
	<path class="st14" d="M4.89,5c2.34,0.58,4.77,1.14,6.85,2.44c-1.12,1.18-2,2.56-2.7,4.03C7.38,9.51,5.91,7.37,4.89,5z"/>
	<path class="st14" d="M13.44,9.07c8.17,1.58,16.27,3.61,24.14,6.31c3.72,1.26,7.24,3.05,10.57,5.12c3.68,2.46,6.8,6.53,6.36,11.17
		c-0.39,4.16-3.48,7.24-6.29,10.02c-1.67-1.27-3.47-2.38-4.99-3.84c2.17-1.47,4.45-3.26,5.16-5.9c0.52-2.7-1.65-4.88-3.63-6.35
		c-4.94-3.54-10.9-5.14-16.63-6.91c-0.56-0.17-1.13-0.35-1.7-0.53c-3.2-0.8-6.36-1.93-9.69-2.03c-0.99,6.95,3.2,13.2,7.69,18.05
		c5.04,5.55,11.19,9.98,17.78,13.51c0.51,0.3,1.14,0.64,1.16,1.32c0.25,1.86,0.24,3.74,0.49,5.6c-9.61-3.99-18.35-10.13-25.26-17.93
		c-4.16-5.09-7.61-11.15-7.97-17.86C10.67,15.38,11.53,11.94,13.44,9.07z"/>
	<path class="st14" d="M29.38,50.28c1.95-0.07,3.52,1.7,5.27,2.44c-1.98,2.41-3.82,4.94-5.34,7.67c-2.59,0.93-5.42,1.12-7.87,2.47
		C22.81,58.05,25.82,53.75,29.38,50.28z"/>
</g>
<g>
	<path class="st15" d="M21.52,20.76c2.76,0.81,5.62,1.27,8.28,2.41c1.41,2.61,3.03,5.14,5.08,7.3c0.72,0.84,1.95,0.48,2.83,0.14
		c1.95-0.84,3.82-1.86,5.77-2.7c0.06,2.08,0.07,4.16,0.13,6.25c-3.08,1.32-5.87,3.2-8.89,4.63C29.18,33.74,24.19,27.84,21.52,20.76z
		"/>
	<path class="st15" d="M38.36,40.84c1.48-1.2,3.19-2.08,4.87-2.99c1.52,1.46,3.31,2.58,4.99,3.84c2.2,2.18,4.82,4.25,5.77,7.33
		c1.31,3.53,0.43,7.67-2.14,10.41c-4.48,4.97-11.03,7.2-17.12,9.5c-7.06,1.89-14.04,4.2-21.27,5.41c-2.54-3.4-3.35-7.87-2.87-12.03
		c1.21-6.64,5.15-12.42,9.72-17.24c0.55-0.62,1.46-1.4,2.32-0.83c1.24,0.99,2.33,2.17,3.63,3.09c-5.26,5.18-10.65,11.89-9.54,19.78
		c7.04-1.08,13.86-3.4,20.57-5.79c3.44-1.19,6.81-2.91,9.45-5.46c1.49-1.43,2.41-3.79,1.26-5.7c-2.42-3.65-6.49-5.65-9.69-8.5
		C38.31,41.46,38.35,41.05,38.36,40.84z"/>
	<path class="st15" d="M5.16,77.94c0.78-2.27,2.31-4.13,3.71-6.04c0.6,1.47,2.15,2.58,2.26,4.2C9.19,76.85,7.26,77.74,5.16,77.94z"
		/>
</g>
</svg>
